<svg width="50" height="50" viewBox="0 0 50 50" fill="none" xmlns="http://www.w3.org/2000/svg">
<path d="M10.4164 41.6667V22.6167L6.38516 25.7209L5.12891 24.0709L24.9997 8.85425L44.8706 24.0709L43.6143 25.7084L39.5831 22.6167V41.6667H10.4164ZM16.6664 30.7709C16.2359 30.7709 15.8609 30.6112 15.5414 30.2917C15.222 29.9723 15.0622 29.5973 15.0622 29.1667C15.0622 28.7362 15.222 28.3612 15.5414 28.0417C15.8609 27.7223 16.2359 27.5626 16.6664 27.5626C17.097 27.5626 17.472 27.7223 17.7914 28.0417C18.1109 28.3612 18.2706 28.7362 18.2706 29.1667C18.2706 29.5973 18.1109 29.9723 17.7914 30.2917C17.472 30.6112 17.097 30.7709 16.6664 30.7709ZM24.9997 30.7709C24.5692 30.7709 24.1942 30.6112 23.8747 30.2917C23.5553 29.9723 23.3956 29.5973 23.3956 29.1667C23.3956 28.7362 23.5553 28.3612 23.8747 28.0417C24.1942 27.7223 24.5692 27.5626 24.9997 27.5626C25.4303 27.5626 25.8053 27.7223 26.1247 28.0417C26.4442 28.3612 26.6039 28.7362 26.6039 29.1667C26.6039 29.5973 26.4442 29.9723 26.1247 30.2917C25.8053 30.6112 25.4303 30.7709 24.9997 30.7709ZM33.3331 30.7709C32.9025 30.7709 32.5275 30.6112 32.2081 30.2917C31.8886 29.9723 31.7289 29.5973 31.7289 29.1667C31.7289 28.7362 31.8886 28.3612 32.2081 28.0417C32.5275 27.7223 32.9025 27.5626 33.3331 27.5626C33.7636 27.5626 34.1386 27.7223 34.4581 28.0417C34.7775 28.3612 34.9372 28.7362 34.9372 29.1667C34.9372 29.5973 34.7775 29.9723 34.4581 30.2917C34.1386 30.6112 33.7636 30.7709 33.3331 30.7709Z" fill="#CDA274"/>
</svg>
