<svg width="40" height="36" fill="none" xmlns="http://www.w3.org/2000/svg"><path d="M36.777 13.322V33c0 1.325-1.15 2.4-2.566 2.4H5.991c-1.416 0-2.565-1.075-2.565-2.4 0-18.604-.001-15.119.006-19.678h33.345z" fill="#D1E7FF"/><path d="M36.777 13.322v4.544c0 .984-.843 1.799-1.894 1.803H5.319c-1.05-.005-1.893-.82-1.893-1.803 0-1.311 0-.406.006-4.544h33.345z" fill="#B9DCFF"/><path d="M26.595 24.675V35.4H13.608V24.675c0-1.325 1.149-2.4 2.565-2.4h7.857c1.416 0 2.565 1.075 2.565 2.4z" fill="#E8F3FF"/><path d="M38.7 13.322c0 2.4-2.08 4.35-4.65 4.35-2.567 0-4.649-1.948-4.649-4.35 0 2.402-2.082 4.35-4.65 4.35-2.568 0-4.65-1.948-4.65-4.35 0 2.402-2.081 4.35-4.65 4.35-2.567 0-4.65-1.948-4.65-4.35-.003 2.386-2.103 4.35-4.649 4.35-2.543 0-4.646-1.962-4.65-4.35 0-3.781-.01-3.548.028-3.722.039-.17-.228.433 3.806-8.277C5.54.884 6.002.6 6.513.6H33.69c.51 0 .973.284 1.177.723 4.037 8.716 3.767 8.107 3.806 8.277.039.173.028-.063.028 3.722z" fill="#B9DCFF"/><path d="M38.7 13.322c0 2.4-2.08 4.35-4.65 4.35-2.567 0-4.649-1.948-4.649-4.35 0 2.402-2.082 4.35-4.65 4.35-2.568 0-4.65-1.948-4.65-4.35 0 2.402-2.082 4.35-4.65 4.35-2.567 0-4.65-1.948-4.65-4.35-.003 2.386-2.103 4.35-4.649 4.35-2.543 0-4.646-1.962-4.65-4.35-.006-3.802-.005-3.574.028-3.722h37.143c.039.173.028-.063.028 3.722z" fill="#B9DCFF"/><path d="M33.344 3.806c-8.144-1.048-16.362.297-23.01 4.982a4.514 4.514 0 0 1-2.597.812H1.53c.039-.17-.228.433 3.806-8.277C5.54.884 6.002.6 6.513.6H33.69c.511 0 .974.284 1.177.723l.179.385c.5 1.081-.455 2.259-1.702 2.098z" fill="#fff"/><path d="M37.418 20.325V33c0 1.654-1.438 3-3.207 3H5.991c-1.768 0-3.206-1.346-3.206-3V20.325c0-.331.287-.6.641-.6.354 0 .642.269.642.6V33c0 .992.863 1.8 1.924 1.8h6.974V24.675c0-1.654 1.439-3 3.207-3h7.857c1.768 0 3.206 1.346 3.206 3V32.4c0 .331-.287.6-.64.6-.355 0-.642-.269-.642-.6v-7.725c0-.992-.863-1.8-1.924-1.8h-7.857c-1.06 0-1.924.808-1.924 1.8V34.8h5.211v-9.45c0-.331.287-.6.641-.6.355 0 .642.269.642.6v9.45H34.21c1.061 0 1.924-.807 1.924-1.8V20.325c0-.331.288-.6.642-.6.354 0 .641.269.641.6zM5.03 9.6c0 .331.287.6.641.6 34.895 0 33.165.058 33.42-.125a.59.59 0 0 0 .244-.392c.036-.241.266.352-4.215-9.322A.644.644 0 0 0 34.532 0H5.67a.644.644 0 0 0-.589.361l-4.168 9C.84 9.521.86 9.268.86 13.322c.004 2.73 2.378 4.95 5.29 4.95 2.003 0 3.751-1.05 4.65-2.592 2.006 3.449 7.29 3.453 9.3.002 2.009 3.448 7.291 3.449 9.3 0 .898 1.541 2.645 2.59 4.65 2.59 2.917 0 5.291-2.221 5.291-4.95 0-.332-.287-.6-.641-.6-.355 0-.642.268-.642.6 0 2.067-1.798 3.75-4.008 3.75s-4.009-1.683-4.009-3.75c0-.332-.287-.6-.641-.6-.354 0-.641.268-.641.6 0 2.067-1.799 3.75-4.009 3.75-2.21 0-4.008-1.683-4.008-3.75 0-.332-.287-.6-.642-.6-.354 0-.641.268-.641.6 0 2.067-1.798 3.75-4.009 3.75-2.16 0-4.008-1.625-4.008-3.78 0-.332-.287-.6-.641-.6-.354 0-.642.268-.642.6 0 2.136-1.835 3.78-4.008 3.78-2.207 0-4.005-1.683-4.009-3.75V9.723L6.092 1.2h28.019L37.724 9H5.67c-.354 0-.641.269-.641.6z" fill="#007FFC"/></svg>