<svg width="20" height="20" fill="none" xmlns="http://www.w3.org/2000/svg"><path d="M9.688 0C4.346 0 0 4.346 0 9.688c0 5.341 4.346 9.687 9.688 9.687 5.341 0 9.687-4.346 9.687-9.688C19.375 4.346 15.029 0 9.687 0zm6.405 4.467a8.236 8.236 0 0 1 1.868 5.155c-.273-.058-3.008-.613-5.762-.266a25.617 25.617 0 0 0-.727-1.626c3.06-1.25 4.446-3.027 4.62-3.263zm-.92-.956c-.15.212-1.395 1.886-4.337 2.989a44.164 44.164 0 0 0-3.088-4.844 8.253 8.253 0 0 1 7.425 1.855zM6.17 2.21c.218.3 1.696 2.349 3.067 4.786-3.87 1.028-7.28 1.013-7.65 1.008A8.305 8.305 0 0 1 6.17 2.212zm-4.757 7.49c0-.085.002-.17.004-.254.362.008 4.372.06 8.504-1.177.237.463.463.934.671 1.404-2.992.843-5.71 3.263-7.052 5.559A8.242 8.242 0 0 1 1.413 9.7zm3.195 6.527c.865-1.767 3.21-4.048 6.547-5.186 1.161 3.02 1.642 5.55 1.765 6.275a8.258 8.258 0 0 1-8.312-1.089zm9.703.332c-.085-.504-.525-2.926-1.608-5.9 2.593-.415 4.871.264 5.155.354a8.29 8.29 0 0 1-3.547 5.546z" fill="#0D0D0D"/></svg>