<svg width="21" height="20" fill="none" xmlns="http://www.w3.org/2000/svg"><path d="M10.008 4.874c-2.84 0-5.13 2.29-5.13 5.13 0 2.839 2.29 5.129 5.13 5.129s5.13-2.29 5.13-5.13c0-2.839-2.29-5.13-5.13-5.13zm0 8.464a3.34 3.34 0 0 1-3.335-3.335 3.338 3.338 0 0 1 3.335-3.334 3.338 3.338 0 0 1 3.335 3.334 3.34 3.34 0 0 1-3.335 3.335zm6.536-8.674c0 .665-.536 1.196-1.197 1.196a1.197 1.197 0 1 1 1.196-1.196zm3.397 1.214c-.076-1.602-.442-3.022-1.616-4.192C17.155.516 15.735.151 14.133.07 12.48-.023 7.53-.023 5.878.07 4.28.146 2.86.512 1.686 1.682.512 2.852.151 4.272.07 5.874c-.093 1.652-.093 6.603 0 8.254.076 1.603.442 3.023 1.616 4.192 1.174 1.17 2.59 1.536 4.192 1.616 1.652.094 6.603.094 8.255 0 1.603-.076 3.022-.442 4.192-1.616 1.17-1.17 1.535-2.589 1.616-4.192.094-1.651.094-6.598 0-8.25zm-2.134 10.023a3.376 3.376 0 0 1-1.902 1.901c-1.317.523-4.442.402-5.897.402-1.456 0-4.585.116-5.898-.402a3.377 3.377 0 0 1-1.901-1.901c-.523-1.317-.402-4.442-.402-5.898 0-1.455-.116-4.584.402-5.897A3.376 3.376 0 0 1 4.11 2.204c1.317-.522 4.442-.402 5.898-.402 1.455 0 4.585-.116 5.897.402a3.376 3.376 0 0 1 1.902 1.902c.522 1.317.402 4.442.402 5.897 0 1.456.12 4.585-.402 5.898z" fill="#0D0D0D"/></svg>