<svg width="25" height="36" fill="none" xmlns="http://www.w3.org/2000/svg"><path d="M21.192.6c1.417 0 2.566 1.075 2.566 2.4v30c0 1.325-1.149 2.4-2.566 2.4H3.555C2.14 35.4.99 34.325.99 33V3C.99 1.675 2.139.6 3.555.6h17.637z" fill="#E1F4F5"/><path d="M16.408 13.479c.614 0 1.129.433 1.195 1.004l.858 7.37c.078.666-.48 1.247-1.195 1.247H7.482c-.716 0-1.273-.581-1.196-1.247l.858-7.37c.067-.571.581-1.004 1.196-1.004h8.068z" fill="#CAEFF2"/><path d="M21.314.603c2.063.09 1.953 2.997-.112 2.997h-8.347c-4.782 0-8.659 3.627-8.659 8.1v23.7h-.64C2.137 35.4.99 34.326.99 33V3C.99 1.675 2.138.6 3.555.6 3.671.6 21.22.6 21.314.603z" fill="#F4FEFF"/><path d="M23.758 30.15V33c0 1.325-1.149 2.4-2.566 2.4H3.555C2.14 35.4.99 34.325.99 33v-2.85h22.768z" fill="#CAEFF2"/><path d="M4.196 30.15v2.859C4.196 34.964.99 35.063.99 33v-2.85h3.206zM16.408 15.729c-3.885 0-7.06 2.736-7.47 6.26-.074.632-.644 1.111-1.324 1.111h-.132c-.716 0-1.273-.581-1.196-1.247l.858-7.37c.067-.571.581-1.004 1.196-1.004h8.068c.613 0 1.129.432 1.195 1.003.078.667-.48 1.247-1.195 1.247z" fill="#E1F4F5"/><path d="M21.192 0H3.555C1.787 0 .348 1.346.348 3v30c0 1.654 1.439 3 3.207 3h17.637c1.769 0 3.207-1.346 3.207-3V3c0-1.654-1.438-3-3.207-3zm0 34.8H3.555c-1.06 0-1.924-.807-1.924-1.8V3c0-.993.863-1.8 1.924-1.8h17.637c1.061 0 1.924.807 1.924 1.8v26.55H4.758c-.355 0-.642.269-.642.6 0 .331.287.6.642.6h18.358V33c0 .992-.863 1.8-1.924 1.8zm-7.375-2.175c0 .331-.287.6-.642.6h-1.603c-.354 0-.641-.269-.641-.6 0-.331.287-.6.641-.6h1.603c.355 0 .642.269.642.6zM7.482 23.7h9.784c1.097 0 1.951-.892 1.833-1.912l-.858-7.37c-.102-.877-.89-1.539-1.833-1.539h-.594v-1.11c0-1.775-1.543-3.219-3.44-3.219s-3.44 1.444-3.44 3.219v1.11H8.34c-.943 0-1.731.662-1.833 1.539l-.858 7.37c-.119 1.02.737 1.912 1.833 1.912zm-.558-1.782.858-7.37a.548.548 0 0 1 .558-.469h.593v.936c0 .332.287.6.642.6.354 0 .641-.268.641-.6V11.77c0-1.113.968-2.019 2.158-2.019s2.157.905 2.157 2.019v1.11h-2.774c-.354 0-.641.269-.641.6 0 .332.287.6.641.6h2.774v.936c0 .332.287.6.642.6.354 0 .641-.268.641-.6v-.936h.594c.287 0 .527.202.558.468l.857 7.371c.037.31-.222.582-.558.582H7.482c-.334 0-.594-.27-.558-.582z" fill="#52C29D"/></svg>