<svg width="142" height="12" fill="none" xmlns="http://www.w3.org/2000/svg"><path d="M13.23.13v11.74h-2V4.287c0-.303.017-.63.051-.983L7.594 9.97a.856.856 0 0 1-.802.48h-.32a.856.856 0 0 1-.802-.48L1.94 3.28c.018.179.032.355.043.528.011.173.017.333.017.479v7.583H0V.13h1.713c.101 0 .188.003.261.008a.68.68 0 0 1 .194.04.391.391 0 0 1 .16.106c.051.049.1.114.144.195l3.654 6.52c.095.173.182.351.261.536.085.184.166.373.245.568.079-.2.16-.393.245-.577.084-.19.174-.37.27-.544L10.749.48a.822.822 0 0 1 .144-.195.482.482 0 0 1 .16-.105.787.787 0 0 1 .203-.041 3.61 3.61 0 0 1 .261-.008h1.713ZM30.836 7.437l-1.485-3.905a8.325 8.325 0 0 1-.228-.617 19.524 19.524 0 0 1-.236-.772c-.073.276-.149.536-.228.78a9.72 9.72 0 0 1-.228.625l-1.476 3.89h3.881Zm4.008 4.433h-1.755a.786.786 0 0 1-.481-.138.92.92 0 0 1-.278-.357l-.912-2.395h-5.054l-.911 2.395a.78.78 0 0 1-.262.34.748.748 0 0 1-.48.155h-1.772l4.8-11.74h2.312l4.793 11.74ZM54.83.13v11.74h-1.165c-.18 0-.331-.027-.455-.081a1.116 1.116 0 0 1-.346-.292l-6.37-7.827c.033.357.05.687.05.99v7.21h-2V.13h1.19c.096 0 .177.005.245.016a.464.464 0 0 1 .185.049c.057.022.11.057.16.105.051.044.108.103.17.179l6.395 7.86c-.017-.19-.03-.377-.042-.56a8.46 8.46 0 0 1-.017-.512V.13h2ZM68.263 11.87h-2.279V.13h2.279v11.74ZM81.71 1.867v3.475h4.573v1.746H81.71v4.782h-2.278V.13h7.695v1.737H81.71ZM99.706 1.867v3.256h4.269v1.68h-4.27v3.321h5.418v1.746h-7.696V.13h7.696v1.737h-5.417ZM122.068 2.265a.774.774 0 0 1-.219.252.492.492 0 0 1-.278.073.79.79 0 0 1-.389-.122 7.524 7.524 0 0 0-.489-.284 3.869 3.869 0 0 0-.675-.276 2.797 2.797 0 0 0-.903-.13c-.315 0-.59.038-.827.114-.236.07-.436.17-.599.3-.157.13-.275.287-.354.471a1.45 1.45 0 0 0-.118.593c0 .276.079.506.236.69.163.184.377.34.641.47a6.1 6.1 0 0 0 .903.35c.338.103.684.214 1.038.333.354.113.7.249 1.038.406.337.151.638.346.903.584.264.233.475.52.632.86.164.342.245.756.245 1.243 0 .53-.096 1.029-.287 1.494-.185.46-.461.863-.827 1.21-.36.34-.801.611-1.324.812-.523.195-1.123.292-1.798.292-.388 0-.77-.038-1.147-.114a5.946 5.946 0 0 1-2.059-.796c-.304-.189-.574-.4-.81-.633l.667-1.047a.655.655 0 0 1 .219-.187.549.549 0 0 1 .287-.08c.141 0 .293.056.456.17.163.108.357.23.582.365.225.135.486.26.785.373.303.109.666.163 1.088.163.647 0 1.147-.146 1.502-.439.354-.297.531-.722.531-1.274 0-.309-.081-.56-.244-.755a1.85 1.85 0 0 0-.633-.488 4.663 4.663 0 0 0-.903-.34 30.649 30.649 0 0 1-1.029-.301 9.113 9.113 0 0 1-1.03-.39 3.34 3.34 0 0 1-.902-.592 2.744 2.744 0 0 1-.642-.91c-.157-.368-.236-.82-.236-1.356 0-.427.087-.844.262-1.25.18-.406.438-.766.776-1.08a3.802 3.802 0 0 1 1.249-.755c.495-.19 1.063-.284 1.704-.284.72 0 1.384.108 1.991.325.608.216 1.125.52 1.553.91l-.566 1.03ZM141.793 1.924h-3.679v9.946h-2.27V1.924h-3.679V.13h9.628v1.794Z" fill="#000"/></svg>