<svg width="38" height="57" viewBox="0 0 38 57" fill="none" xmlns="http://www.w3.org/2000/svg">
<path d="M19 0C29.4892 0 38 8.15334 38 18.2C38 34.3777 19 56.6222 19 56.6222C19 56.6222 0 34.3777 0 18.2C0 8.15334 8.51081 0 19 0ZM19 28.3111C20.5031 28.3111 21.9725 27.8367 23.2223 26.9479C24.4721 26.059 25.4463 24.7957 26.0215 23.3177C26.5967 21.8396 26.7472 20.2132 26.454 18.6441C26.1607 17.075 25.4369 15.6337 24.374 14.5025C23.3111 13.3712 21.9569 12.6009 20.4827 12.2887C19.0084 11.9766 17.4803 12.1368 16.0916 12.749C14.7029 13.3613 13.5159 14.398 12.6808 15.7283C11.8457 17.0585 11.4 18.6224 11.4 20.2222C11.4022 22.3668 12.2036 24.4229 13.6284 25.9393C15.0532 27.4558 16.985 28.3087 19 28.3111Z" fill="#CDA274"/>
</svg>
